# xmcd CD database file
#
# Track frame offsets:
#	150
#	38865
#	66697
#	83116
#
# Disc length: 1720 seconds
#
# Revision: 0
# Processed by: cddbd v1.5.2PL0 Copyright (c) Steve Scherf et al.
# Submitted via: CDex 1.70beta2
#
DISCID=3306b604
DTITLE=The Sand Pebbles - Atlantis Regrets Nothing (Bonus Live Disc)
DYEAR=2006
DGENRE=New Age
TTITLE0=Black Sun Ensemble
TTITLE1=Big Left
TTITLE2=Speed and Intensity
TTITLE3=Ripple
EXTD=YEAR: 2006
EXTT0=
EXTT1=
EXTT2=
EXTT3=
PLAYORDER=
